HIERARCHY
ROOT root
{
	OFFSET 0.000000 0.000000 0.000000
	CHANNELS 6 Xposition Yposition Zposition Zrotation Yrotation Xrotation
	JOINT lhip
	{
		OFFSET 0.058581 -0.082280 -0.017664
		CHANNELS 3 Zrotation Yrotation Xrotation
		JOINT lknee
		{
			OFFSET 0.043451 -0.386469 0.008037
			CHANNELS 3 Zrotation Yrotation Xrotation
			JOINT lankle
			{
				OFFSET -0.014790 -0.426874 -0.037428
				CHANNELS 3 Zrotation Yrotation Xrotation
				JOINT ltoe
				{
					OFFSET 0.041054 -0.060286 0.122042
					CHANNELS 3 Zrotation Yrotation Xrotation
					End Site
					{
						OFFSET 0.000000 0.000000 0.000000
					}
				}
			}
		}
	}
	JOINT rhip
	{
		OFFSET -0.060310 -0.090513 -0.013543
		CHANNELS 3 Zrotation Yrotation Xrotation
		JOINT rknee
		{
			OFFSET -0.043257 -0.383688 -0.004843
			CHANNELS 3 Zrotation Yrotation Xrotation
			JOINT rankle
			{
				OFFSET 0.019056 -0.420046 -0.034562
				CHANNELS 3 Zrotation Yrotation Xrotation
				JOINT rtoe
				{
					OFFSET -0.034840 -0.062106 0.130323
					CHANNELS 3 Zrotation Yrotation Xrotation
					End Site
					{
						OFFSET 0.000000 0.000000 0.000000
					}
				}
			}
		}
	}
	JOINT lowerback
	{
		OFFSET 0.004439 0.124404 -0.038385
		CHANNELS 3 Zrotation Yrotation Xrotation
		JOINT upperback
		{
			OFFSET 0.004488 0.137956 0.026820
			CHANNELS 3 Zrotation Yrotation Xrotation
			JOINT chest
			{
				OFFSET -0.002265 0.056032 0.002855
				CHANNELS 3 Zrotation Yrotation Xrotation
				JOINT lowerneck
				{
					OFFSET -0.013390 0.211636 -0.033468
					CHANNELS 3 Zrotation Yrotation Xrotation
					JOINT upperneck
					{
						OFFSET 0.010113 0.088937 0.050410
						CHANNELS 3 Zrotation Yrotation Xrotation
						End Site
						{
							OFFSET 0.000000 0.000000 0.000000
						}
					}
				}
				JOINT lclavicle
				{
					OFFSET 0.071702 0.114000 -0.018898
					CHANNELS 3 Zrotation Yrotation Xrotation
					JOINT lshoulder
					{
						OFFSET 0.122921 0.045205 -0.019046
						CHANNELS 3 Zrotation Yrotation Xrotation
						JOINT lelbow
						{
							OFFSET 0.255332 -0.015649 -0.022946
							CHANNELS 3 Zrotation Yrotation Xrotation
							JOINT lwrist
							{
								OFFSET 0.265709 0.012698 -0.007375
								CHANNELS 3 Zrotation Yrotation Xrotation
								End Site
								{
									OFFSET 0.000000 0.000000 0.000000
								}
							}
						}
					}
				}
				JOINT rclavicle
				{
					OFFSET -0.082954 0.112472 -0.023707
					CHANNELS 3 Zrotation Yrotation Xrotation
					JOINT rshoulder
					{
						OFFSET -0.113228 0.046853 -0.008472
						CHANNELS 3 Zrotation Yrotation Xrotation
						JOINT relbow
						{
							OFFSET -0.260127 -0.014369 -0.031269
							CHANNELS 3 Zrotation Yrotation Xrotation
							JOINT rwrist
							{
								OFFSET -0.269108 0.006794 -0.006027
								CHANNELS 3 Zrotation Yrotation Xrotation
								End Site
								{
									OFFSET 0.000000 0.000000 0.000000
								}
							}
						}
					}
				}
			}
		}
	}
}
MOTION
Frames: 16
Frame Time: 0.033333
1.867981 0.830675 0.954713 -87.026439 2.805178 86.986930 25.785723 14.316641 3.279968 0.914817 1.801277 -0.228468 -17.874244 1.307340 -0.848900 0.000000 -0.000000 0.000000 -19.407630 -15.126866 4.857110 -3.370212 -6.625101 1.481528 13.798825 -7.732928 1.103159 0.000000 -0.000000 0.000000 6.605502 -0.801581 -4.599799 -9.327027 -0.847720 -2.610595 -2.727115 -2.227348 1.743979 9.937812 -9.908883 5.742809 5.188404 14.184434 13.740349 -21.042061 -0.829035 3.423010 -59.168376 5.125343 6.672762 3.898334 -13.051886 22.154474 7.997925 -21.102160 -8.181598 -22.232504 11.659336 -16.920939 -18.418608 31.822914 -44.431128 -17.993479 9.131097 -24.367966 -7.564356 19.363383 -6.293098 
1.866360 0.828955 0.954880 -86.637610 2.715676 87.192877 25.779350 13.721851 3.098339 0.625693 2.768969 -0.286154 -18.685251 1.147514 -0.716389 0.000000 -0.000000 0.000000 -19.220784 -14.026741 4.643472 -3.618224 -6.703660 1.791456 13.377115 -8.615034 0.421034 0.000000 -0.000000 0.000000 6.902850 -0.667895 -6.179128 -8.919037 -0.612704 -1.176931 -3.155327 -2.805325 0.903444 9.744835 -11.734502 7.490021 3.228336 14.954274 11.192009 -20.541399 -0.045263 3.583177 -59.453599 4.893678 6.205580 4.042309 -13.881248 20.836128 4.677326 -21.388937 -13.078414 -24.354792 10.323875 -17.754838 -19.108682 33.073202 -45.497936 -19.210430 8.941374 -25.819557 -7.539351 18.740131 -7.771389 
1.862759 0.827132 0.955003 -86.907029 2.089129 86.569052 25.522694 13.877016 4.692848 0.373537 3.484736 -1.283825 -19.658961 0.742618 -0.529677 0.000000 -0.000000 0.000000 -20.192485 -13.611415 4.896335 -3.580501 -6.326279 2.857541 13.369722 -7.599699 -0.740777 0.000000 -0.000000 0.000000 5.960655 0.076218 -6.742021 -8.643512 0.103565 0.266818 -2.292911 -2.842457 0.445712 11.596500 -11.179906 6.769723 -0.138570 12.431529 9.412894 -20.246194 0.618440 3.113800 -59.096064 3.797009 8.888850 3.647909 -13.399375 20.622318 0.965028 -22.893447 -18.835957 -24.163725 7.521311 -19.528622 -22.735882 35.964622 -45.793827 -19.978291 7.957459 -26.902054 -6.069463 17.633196 -7.872440 
1.854151 0.825659 0.954526 -86.460040 1.731724 85.859969 25.486729 13.859169 6.515093 0.412874 3.143885 -2.473424 -20.301449 0.290691 -0.112710 0.000000 -0.000000 0.000000 -20.730451 -12.417448 5.855614 -3.421804 -4.455516 4.116684 12.520095 -7.674256 -3.185112 0.000000 -0.000000 0.000000 5.964877 0.831418 -8.910044 -7.903461 0.549045 3.001203 -3.349563 -3.658200 -1.067805 12.076294 -11.142362 9.240822 -0.982487 11.711545 9.949571 -18.657939 0.424882 4.151209 -58.379609 4.309716 9.941874 1.653897 -13.821558 25.028782 -1.194195 -23.851055 -21.060892 -25.706963 6.090337 -19.986159 -22.559459 37.738439 -45.186274 -21.736804 8.877527 -28.253425 -9.137476 17.110653 -10.575875 
1.854688 0.824727 0.954523 -86.426257 1.764471 85.775949 25.503925 13.859483 6.521649 0.409899 3.139518 -2.454679 -20.326279 0.257549 -0.127380 0.000000 -0.000000 0.000000 -20.710146 -12.416890 5.864176 -3.399880 -4.451534 4.119522 12.525421 -7.635514 -3.217398 0.000000 -0.000000 0.000000 5.903552 0.824740 -9.044022 -7.902521 0.523495 2.975575 -3.349287 -3.689241 -1.164647 12.103229 -11.112428 9.224248 -1.037164 11.660839 9.964566 -18.675051 0.433066 4.176753 -58.352137 4.296654 9.965950 1.685781 -13.824804 25.040309 -1.217415 -23.880492 -21.090874 -25.648076 6.119180 -19.997189 -22.877216 37.695105 -45.351079 -21.697131 8.877570 -28.195443 -9.173082 17.135163 -10.610673 
1.850570 0.825213 0.953555 -85.527219 1.983622 85.040170 26.187134 13.507693 7.125023 0.316016 2.306962 -2.272709 -20.851901 -0.684266 -0.045027 0.000000 -0.000000 0.000000 -20.684918 -12.178819 7.155008 -3.095775 -3.176375 4.666728 12.495286 -6.355818 -5.046852 0.000000 -0.000000 0.000000 5.126686 0.832853 -9.597055 -7.606538 -0.097878 2.817770 -2.769407 -3.742864 -0.302360 13.288744 -9.605887 8.761190 -1.693233 10.005203 11.020978 -18.261311 0.699858 3.740787 -58.621058 4.264899 10.394787 2.008355 -13.144185 26.226344 -2.334472 -24.781351 -21.334029 -25.616140 6.202569 -19.861239 -24.520884 37.484515 -46.717849 -22.573489 9.720693 -27.864705 -8.919356 16.539346 -12.032212 
1.848160 0.826114 0.951148 -85.355713 2.034586 84.915486 26.554024 13.396231 7.344706 0.451592 2.199127 -2.224287 -20.975690 -0.767087 0.005580 0.000000 -0.000000 0.000000 -20.845887 -12.156039 7.472236 -3.160546 -3.274033 4.720247 12.591782 -6.465950 -4.931707 0.000000 -0.000000 0.000000 4.802396 0.942119 -10.023100 -7.682538 -0.094099 2.587592 -2.571034 -3.684107 -0.493924 13.327144 -9.547660 8.829821 -1.812964 9.932983 11.118169 -18.166784 0.810160 3.877412 -58.445573 4.455384 10.518332 2.067962 -13.070595 26.193165 -2.359894 -24.830116 -21.422010 -25.711114 6.187605 -20.174093 -24.879689 37.579594 -46.842257 -22.561833 9.895355 -27.907366 -9.049003 16.578076 -12.088594 
1.840649 0.827676 0.950879 -84.901774 2.457297 83.714365 28.263161 13.107601 9.169550 0.296565 0.923213 -2.545212 -24.215797 -2.541794 0.861061 0.000000 -0.000000 0.000000 -21.076084 -13.041436 10.047015 -3.403630 -6.141102 3.606173 15.144390 -5.879373 -2.246519 0.000000 -0.000000 0.000000 3.909628 1.489383 -10.467200 -7.273632 -0.472047 3.159720 -1.992667 -4.111219 -0.545412 13.688025 -8.489637 9.549891 -1.947561 8.886858 11.012288 -18.165742 0.717944 3.698817 -58.344234 5.223458 10.587198 1.818787 -12.527593 26.430338 -2.572530 -24.570633 -20.381271 -25.234558 6.162603 -20.815531 -24.714646 38.757295 -46.551030 -23.081305 10.880185 -28.124181 -10.241992 16.509166 -13.166520 
1.841436 0.827046 0.949575 -84.901946 2.473885 83.675998 28.357227 13.100205 9.206338 0.326219 0.909553 -2.535395 -24.252334 -2.571256 0.871555 0.000000 -0.000000 0.000000 -21.098570 -13.047395 10.085090 -3.416961 -6.154137 3.584207 15.153830 -5.877622 -2.228986 0.000000 -0.000000 0.000000 3.834034 1.487555 -10.582974 -7.314448 -0.476458 3.146623 -2.036996 -4.128115 -0.630533 13.675458 -8.479577 9.567291 -1.966430 8.911065 10.980749 -18.207392 0.724115 3.723666 -58.355376 5.230170 10.576603 1.826231 -12.542570 26.431982 -2.547178 -24.544274 -20.402553 -25.183151 6.187595 -20.809529 -24.833671 38.757043 -46.628709 -23.035017 10.871490 -28.102732 -10.286186 16.526517 -13.171456 
1.835644 0.827000 0.949897 -84.745384 2.580527 82.943273 29.690297 14.136621 10.302626 -0.098715 -0.099936 -2.379319 -27.024812 -4.665999 1.900879 0.000000 -0.000000 0.000000 -21.415017 -13.968306 12.160651 -3.642954 -7.656909 1.822755 16.115675 -4.363249 -0.792764 0.000000 -0.000000 0.000000 3.553435 1.401525 -11.189503 -8.232796 -0.801394 3.975355 -1.386338 -4.019576 -1.655711 14.050765 -6.485313 10.792343 -1.346057 10.991677 10.343350 -18.641681 1.008590 2.873476 -58.244532 6.873752 10.211607 2.229620 -12.265342 26.157093 -2.302629 -22.745303 -18.931309 -24.184402 6.918527 -22.226407 -24.316153 39.865739 -45.844090 -21.688021 11.011574 -27.502166 -10.181206 16.522263 -12.661865 
1.836673 0.826329 0.948214 -84.743041 2.622449 82.867530 29.671852 14.135695 10.293698 -0.104164 -0.104582 -2.375616 -27.017142 -4.664416 1.891410 0.000000 -0.000000 0.000000 -21.416742 -13.970885 12.159765 -3.646121 -7.654283 1.824672 16.117518 -4.372201 -0.794124 0.000000 -0.000000 0.000000 3.503245 1.407943 -11.278090 -8.281300 -0.798079 3.909926 -1.430792 -4.005203 -1.696695 14.046588 -6.483992 10.773213 -1.348379 10.995704 10.328232 -18.683798 1.022198 2.866679 -58.268223 6.878351 10.209618 2.212319 -12.267753 26.164940 -2.298620 -22.743276 -18.924675 -24.174768 6.898114 -22.223350 -24.300293 39.867009 -45.860858 -21.689389 11.011120 -27.496984 -10.182819 16.524151 -12.655129 
1.835897 0.823143 0.947742 -84.595412 2.713622 82.845721 29.171211 13.909536 10.022708 0.071602 -0.474667 -2.201031 -26.194674 -4.528200 0.874188 0.000000 -0.000000 0.000000 -21.505653 -14.096677 12.224143 -3.687142 -7.588175 1.848617 16.163762 -4.645822 -0.827123 0.000000 -0.000000 0.000000 3.580543 1.593324 -11.608711 -8.355250 -0.628446 3.681516 -1.497679 -3.792612 -1.684282 13.983677 -6.699663 10.281657 -1.410222 10.994209 9.954677 -18.865109 1.208742 2.876960 -58.425601 6.748634 10.056178 2.189902 -12.185722 26.281297 -1.535270 -22.472807 -18.676923 -24.059498 6.892710 -21.658336 -24.039938 39.424650 -45.868345 -21.613242 11.015272 -27.237933 -10.609564 16.674380 -12.654276 
1.836516 0.819234 0.947606 -84.561213 2.713326 82.968031 28.498112 13.344906 9.745430 0.553692 -1.388714 -1.848879 -24.261604 -4.104203 -1.393380 0.000000 -0.000000 0.000000 -21.620132 -14.340267 12.204291 -3.750416 -7.183216 1.650910 16.334653 -5.336950 -0.638183 0.000000 -0.000000 0.000000 3.706691 1.804674 -11.833578 -8.414141 -0.471443 3.184440 -1.591175 -3.361354 -1.179072 13.763321 -7.248039 8.769208 -1.571922 10.571135 9.263575 -18.955362 1.337393 2.835308 -58.748614 6.303103 9.720904 2.292690 -12.083513 26.304518 0.114196 -21.932414 -18.228095 -23.893559 6.971956 -20.781805 -24.200421 38.458759 -46.645932 -21.862471 11.438160 -27.133942 -10.905991 16.935466 -12.395995 
1.837020 0.818017 0.948704 -84.632593 2.749059 82.919871 28.416709 13.279028 9.657870 0.554113 -1.457592 -1.793241 -24.139313 -4.078530 -1.562371 0.000000 -0.000000 0.000000 -21.629501 -14.357443 12.216157 -3.753669 -7.154756 1.620241 16.337045 -5.367462 -0.623289 0.000000 -0.000000 0.000000 3.671684 1.861488 -11.855514 -8.403117 -0.418164 3.220381 -1.561999 -3.342265 -1.175256 13.733085 -7.271143 8.656157 -1.613362 10.537245 9.177026 -18.966200 1.358564 2.859147 -58.752670 6.288019 9.705651 2.300614 -12.104203 26.265883 0.280706 -21.887656 -18.257960 -23.802391 7.035781 -20.682652 -24.135356 38.409236 -46.569921 -21.846973 11.457481 -27.152378 -10.996531 16.967671 -12.413993 
1.839379 0.816666 0.950329 -85.783633 2.405337 83.218267 26.976622 11.122453 8.899626 0.729171 -3.977700 0.205971 -18.920367 -1.020757 -6.665393 0.000000 -0.000000 0.000000 -21.725653 -14.401168 11.255383 -3.679477 -5.137612 1.087737 16.142462 -6.999437 -0.224612 0.000000 -0.000000 0.000000 3.798832 2.170658 -11.803078 -8.238709 -0.018813 2.254159 -2.553352 -3.017383 -0.434794 12.513476 -8.940545 6.707182 -1.247480 10.422979 7.997780 -18.336214 1.414010 3.474706 -58.765229 5.891970 8.407006 1.814593 -12.874107 25.704326 5.231666 -20.365199 -18.508131 -24.166560 7.328695 -18.379692 -22.907218 36.434243 -46.681422 -22.584344 12.949189 -27.151961 -12.505860 17.623852 -12.918977 
1.839384 0.816897 0.951207 -85.884322 2.479442 83.256641 26.923867 11.121838 8.880530 0.707011 -3.974558 0.207982 -18.893838 -1.008211 -6.689389 0.000000 -0.000000 0.000000 -21.722940 -14.387900 11.239909 -3.669979 -5.106169 1.114295 16.142642 -7.001179 -0.245122 0.000000 -0.000000 0.000000 3.780541 2.108674 -11.786349 -8.241930 -0.066880 2.299354 -2.556024 -3.058344 -0.400864 12.481548 -8.940472 6.694196 -1.276698 10.421662 7.984555 -18.325863 1.381290 3.457023 -58.729237 5.860736 8.427309 1.815988 -12.895492 25.706940 5.242302 -20.364610 -18.511615 -24.101029 7.354370 -18.331965 -22.884935 36.492087 -46.663477 -22.507681 12.933457 -27.119869 -12.494626 17.626062 -12.884537 
